<svg width="96" height="18" viewBox="0 0 96 18" fill="none" xmlns="http://www.w3.org/2000/svg">
<path d="M10 0.375L12.2451 6.4211L19.5106 6.4211L13.6327 10.1578L15.8779 16.2039L10 12.4672L4.12215 16.2039L6.36729 10.1578L0.489435 6.4211L7.75486 6.4211L10 0.375Z" fill="#E8A21A"/>
<path d="M29 0.375L31.2451 6.4211L38.5106 6.4211L32.6327 10.1578L34.8779 16.2039L29 12.4672L23.1221 16.2039L25.3673 10.1578L19.4894 6.4211L26.7549 6.4211L29 0.375Z" fill="#E8A21A"/>
<path d="M48 0.375L50.2451 6.4211L57.5106 6.4211L51.6327 10.1578L53.8779 16.2039L48 12.4672L42.1221 16.2039L44.3673 10.1578L38.4894 6.4211L45.7549 6.4211L48 0.375Z" fill="#E8A21A"/>
<path d="M67 0.375L69.2451 6.4211L76.5106 6.4211L70.6327 10.1578L72.8779 16.2039L67 12.4672L61.1221 16.2039L63.3673 10.1578L57.4894 6.4211L64.7549 6.4211L67 0.375Z" fill="#E8A21A"/>
<path d="M86 0.375L88.2451 6.4211L95.5106 6.4211L89.6327 10.1578L91.8779 16.2039L86 12.4672L80.1221 16.2039L82.3673 10.1578L76.4894 6.4211L83.7549 6.4211L86 0.375Z" fill="#E8A21A"/>
</svg>
