<svg width="25" height="25" viewBox="0 0 25 25" fill="none" xmlns="http://www.w3.org/2000/svg">
<path d="M16 5.5H18.5C18.776 5.5 19 5.276 19 5V1.6315C19 1.3695 18.7985 1.1515 18.5375 1.133C17.742 1.0765 16.188 1 15.0705 1C12 1 10 2.84 10 6.184V9.5H6.5C6.224 9.5 6 9.724 6 10V13.5C6 13.776 6.224 14 6.5 14H10V23.5C10 23.776 10.224 24 10.5 24H14C14.276 24 14.5 23.776 14.5 23.5V14H18.111C18.366 14 18.58 13.8085 18.608 13.555L18.997 10.055C19.03 9.759 18.798 9.5 18.5 9.5H14.5V7C14.5 6.1715 15.1715 5.5 16 5.5Z" fill="white"/>
</svg>
