<svg width="40" height="40" viewBox="0 0 40 40" fill="none" xmlns="http://www.w3.org/2000/svg">
<path d="M20 25.8334C16.7841 25.8334 14.1666 23.2167 14.1666 20.0001C14.1666 16.7834 16.7841 14.1667 20 14.1667C23.2158 14.1667 25.8333 16.7834 25.8333 20.0001C25.8333 23.2167 23.2158 25.8334 20 25.8334ZM20 15.8334C17.7025 15.8334 15.8333 17.7026 15.8333 20.0001C15.8333 22.2976 17.7025 24.1667 20 24.1667C22.2975 24.1667 24.1666 22.2976 24.1666 20.0001C24.1666 17.7026 22.2975 15.8334 20 15.8334Z" fill="white"/>
<path d="M26.25 15C26.9404 15 27.5 14.4404 27.5 13.75C27.5 13.0596 26.9404 12.5 26.25 12.5C25.5596 12.5 25 13.0596 25 13.75C25 14.4404 25.5596 15 26.25 15Z" fill="white"/>
<path d="M25 30.8334H15C11.7841 30.8334 9.16663 28.2167 9.16663 25.0001V15.0001C9.16663 11.7834 11.7841 9.16675 15 9.16675H25C28.2158 9.16675 30.8333 11.7834 30.8333 15.0001V25.0001C30.8333 28.2167 28.2158 30.8334 25 30.8334ZM15 10.8334C12.7025 10.8334 10.8333 12.7026 10.8333 15.0001V25.0001C10.8333 27.2976 12.7025 29.1667 15 29.1667H25C27.2975 29.1667 29.1666 27.2976 29.1666 25.0001V15.0001C29.1666 12.7026 27.2975 10.8334 25 10.8334H15Z" fill="white"/>
</svg>
