<svg width="161" height="60" viewBox="0 0 161 60" fill="none" xmlns="http://www.w3.org/2000/svg">
<path d="M3.78 13.6581C3.78 13.1467 3.858 12.6874 4.014 12.2801C4.17867 11.8641 4.391 11.5131 4.651 11.2271C4.91967 10.9411 5.22733 10.7201 5.574 10.5641C5.92067 10.4081 6.28033 10.3301 6.653 10.3301C7.043 10.3301 7.38533 10.4037 7.68 10.5511C7.97467 10.6984 8.26933 10.8977 8.564 11.1491L8.525 9.97908V7.54808H9.591V16.8041H8.707L8.616 15.9721H8.577C8.317 16.2407 8.005 16.4747 7.641 16.6741C7.28567 16.8647 6.913 16.9601 6.523 16.9601C6.107 16.9601 5.73 16.8864 5.392 16.7391C5.06267 16.5917 4.77667 16.3794 4.534 16.1021C4.29133 15.8161 4.105 15.4694 3.975 15.0621C3.845 14.6547 3.78 14.1867 3.78 13.6581ZM4.885 13.6451C4.885 14.4077 5.04533 15.0014 5.366 15.4261C5.69533 15.8507 6.15467 16.0631 6.744 16.0631C7.368 16.0631 7.96167 15.7467 8.525 15.1141V11.9681C8.239 11.6994 7.95733 11.5087 7.68 11.3961C7.41133 11.2834 7.13833 11.2271 6.861 11.2271C6.58367 11.2271 6.32367 11.2877 6.081 11.4091C5.847 11.5217 5.639 11.6864 5.457 11.9031C5.28367 12.1111 5.145 12.3624 5.041 12.6571C4.937 12.9517 4.885 13.2811 4.885 13.6451ZM11.6919 13.6581C11.6919 13.1381 11.7829 12.6744 11.9649 12.2671C12.1469 11.8511 12.3853 11.5001 12.6799 11.2141C12.9833 10.9281 13.3256 10.7114 13.7069 10.5641C14.0969 10.4081 14.4956 10.3301 14.9029 10.3301C15.3536 10.3301 15.7566 10.4037 16.1119 10.5511C16.4673 10.6897 16.7663 10.8891 17.0089 11.1491C17.2603 11.4091 17.4509 11.7211 17.5809 12.0851C17.7109 12.4491 17.7759 12.8521 17.7759 13.2941C17.7759 13.4067 17.7716 13.5194 17.7629 13.6321C17.7629 13.7361 17.7543 13.8271 17.7369 13.9051H12.7969C12.8056 14.2431 12.8706 14.5464 12.9919 14.8151C13.1219 15.0837 13.2909 15.3134 13.4989 15.5041C13.7156 15.6947 13.9669 15.8421 14.2529 15.9461C14.5476 16.0501 14.8683 16.1021 15.2149 16.1021C15.5876 16.1021 15.9256 16.0501 16.2289 15.9461C16.5409 15.8421 16.8443 15.6991 17.1389 15.5171L17.5159 16.2191C17.2039 16.4184 16.8486 16.5917 16.4499 16.7391C16.0513 16.8864 15.5963 16.9601 15.0849 16.9601C14.6169 16.9601 14.1749 16.8864 13.7589 16.7391C13.3516 16.5831 12.9919 16.3664 12.6799 16.0891C12.3766 15.8031 12.1339 15.4564 11.9519 15.0491C11.7786 14.6417 11.6919 14.1781 11.6919 13.6581ZM16.7879 13.1381C16.7879 12.5054 16.6233 12.0201 16.2939 11.6821C15.9646 11.3441 15.5053 11.1751 14.9159 11.1751C14.6559 11.1751 14.4046 11.2184 14.1619 11.3051C13.9279 11.3917 13.7156 11.5217 13.5249 11.6951C13.3343 11.8597 13.1739 12.0634 13.0439 12.3061C12.9139 12.5487 12.8273 12.8261 12.7839 13.1381H16.7879ZM20.0458 15.2701C20.4012 15.5301 20.7825 15.7381 21.1898 15.8941C21.5972 16.0501 22.0868 16.1281 22.6588 16.1281C23.2308 16.1281 23.6555 16.0327 23.9328 15.8421C24.2102 15.6514 24.3488 15.4174 24.3488 15.1401C24.3488 14.8974 24.1972 14.6807 23.8938 14.4901C23.5992 14.2994 23.0662 14.1087 22.2948 13.9181C21.9655 13.8401 21.6535 13.7447 21.3588 13.6321C21.0728 13.5194 20.8215 13.3894 20.6048 13.2421C20.3882 13.0861 20.2148 12.9171 20.0848 12.7351C19.9548 12.5531 19.8898 12.3494 19.8898 12.1241C19.8898 11.8727 19.9462 11.6387 20.0588 11.4221C20.1715 11.1967 20.3362 11.0061 20.5528 10.8501C20.7782 10.6854 21.0555 10.5597 21.3848 10.4731C21.7228 10.3777 22.1085 10.3301 22.5418 10.3301C23.0185 10.3301 23.4822 10.4124 23.9328 10.5771C24.3835 10.7331 24.7648 10.9194 25.0768 11.1361L24.5568 11.8251C24.2795 11.6257 23.9718 11.4654 23.6338 11.3441C23.2958 11.2227 22.9318 11.1621 22.5418 11.1621C22.2472 11.1621 22.0002 11.1881 21.8008 11.2401C21.6015 11.2834 21.4412 11.3484 21.3198 11.4351C21.1985 11.5131 21.1118 11.6084 21.0598 11.7211C21.0078 11.8337 20.9818 11.9507 20.9818 12.0721C20.9818 12.3321 21.1595 12.5487 21.5148 12.7221C21.8702 12.8867 22.3338 13.0427 22.9058 13.1901C23.7638 13.4067 24.3965 13.6537 24.8038 13.9311C25.2198 14.2084 25.4278 14.5897 25.4278 15.0751C25.4278 15.3351 25.3672 15.5777 25.2458 15.8031C25.1245 16.0284 24.9425 16.2277 24.6998 16.4011C24.4658 16.5744 24.1712 16.7087 23.8158 16.8041C23.4692 16.9081 23.0705 16.9601 22.6198 16.9601C21.9958 16.9601 21.4195 16.8647 20.8908 16.6741C20.3708 16.4747 19.9158 16.2407 19.5258 15.9721L20.0458 15.2701ZM27.5548 10.4861H31.5588V16.8041H30.4928V11.3571H27.5548V10.4861ZM30.9088 9.18608C30.6574 9.18608 30.4494 9.11241 30.2848 8.96508C30.1288 8.81774 30.0508 8.61841 30.0508 8.36708C30.0508 8.11574 30.1288 7.91641 30.2848 7.76908C30.4494 7.61308 30.6574 7.53508 30.9088 7.53508C31.1514 7.53508 31.3551 7.61308 31.5198 7.76908C31.6844 7.91641 31.7668 8.11574 31.7668 8.36708C31.7668 8.61841 31.6844 8.81774 31.5198 8.96508C31.3551 9.11241 31.1514 9.18608 30.9088 9.18608ZM36.0387 17.8571C36.0387 18.1864 36.212 18.4551 36.5587 18.6631C36.914 18.8711 37.4297 18.9751 38.1057 18.9751C38.4697 18.9751 38.799 18.9361 39.0937 18.8581C39.3884 18.7887 39.6397 18.6934 39.8477 18.5721C40.0557 18.4507 40.2117 18.3121 40.3157 18.1561C40.4284 18.0001 40.4847 17.8397 40.4847 17.6751C40.4847 17.3717 40.3634 17.1681 40.1207 17.0641C39.8867 16.9601 39.527 16.9081 39.0417 16.9081H37.8067C37.6247 16.9081 37.4514 16.8994 37.2867 16.8821C37.1307 16.8734 36.9834 16.8474 36.8447 16.8041C36.5414 16.9687 36.329 17.1377 36.2077 17.3111C36.095 17.4931 36.0387 17.6751 36.0387 17.8571ZM35.1157 17.9611C35.1157 17.7097 35.2024 17.4627 35.3757 17.2201C35.5577 16.9774 35.8177 16.7564 36.1557 16.5571V16.5051C35.9824 16.4097 35.8307 16.2797 35.7007 16.1151C35.5707 15.9504 35.5057 15.7337 35.5057 15.4651C35.5057 15.2657 35.5707 15.0621 35.7007 14.8541C35.8307 14.6374 36.017 14.4467 36.2597 14.2821V14.2301C36.043 14.0654 35.8567 13.8487 35.7007 13.5801C35.5534 13.3027 35.4797 12.9734 35.4797 12.5921C35.4797 12.2454 35.5447 11.9334 35.6747 11.6561C35.8134 11.3787 35.9954 11.1447 36.2207 10.9541C36.446 10.7547 36.706 10.6031 37.0007 10.4991C37.304 10.3864 37.6247 10.3301 37.9627 10.3301C38.3094 10.3301 38.6214 10.3821 38.8987 10.4861H41.5117V11.3051H39.8217C39.969 11.4611 40.1034 11.6517 40.2247 11.8771C40.346 12.1024 40.4067 12.3537 40.4067 12.6311C40.4067 12.9691 40.3417 13.2724 40.2117 13.5411C40.0904 13.8097 39.917 14.0394 39.6917 14.2301C39.475 14.4121 39.215 14.5551 38.9117 14.6591C38.617 14.7544 38.3007 14.8021 37.9627 14.8021C37.798 14.8021 37.6204 14.7847 37.4297 14.7501C37.2477 14.7067 37.07 14.6461 36.8967 14.5681C36.5674 14.7761 36.4027 15.0187 36.4027 15.2961C36.4027 15.5474 36.5154 15.7337 36.7407 15.8551C36.9747 15.9677 37.2997 16.0241 37.7157 16.0241H39.1327C39.9474 16.0241 40.5497 16.1367 40.9397 16.3621C41.3384 16.5874 41.5377 16.9687 41.5377 17.5061C41.5377 17.8007 41.4554 18.0824 41.2907 18.3511C41.126 18.6197 40.892 18.8537 40.5887 19.0531C40.2854 19.2524 39.917 19.4127 39.4837 19.5341C39.0504 19.6554 38.565 19.7161 38.0277 19.7161C37.1004 19.7161 36.381 19.5644 35.8697 19.2611C35.367 18.9577 35.1157 18.5244 35.1157 17.9611ZM37.9627 14.0871C38.37 14.0871 38.7124 13.9527 38.9897 13.6841C39.2757 13.4154 39.4187 13.0514 39.4187 12.5921C39.4187 12.3754 39.3797 12.1761 39.3017 11.9941C39.2237 11.8121 39.1197 11.6561 38.9897 11.5261C38.8597 11.3961 38.7037 11.2964 38.5217 11.2271C38.3484 11.1491 38.162 11.1101 37.9627 11.1101C37.7634 11.1101 37.5727 11.1491 37.3907 11.2271C37.2174 11.2964 37.0657 11.3961 36.9357 11.5261C36.8057 11.6561 36.7017 11.8121 36.6237 11.9941C36.5457 12.1761 36.5067 12.3754 36.5067 12.5921C36.5067 13.0514 36.6497 13.4154 36.9357 13.6841C37.2217 13.9527 37.564 14.0871 37.9627 14.0871ZM43.1836 10.4861H44.0676L44.1586 11.5651H44.2106C44.5399 11.2097 44.8953 10.9151 45.2766 10.6811C45.6579 10.4471 46.0956 10.3301 46.5896 10.3301C47.3436 10.3301 47.8939 10.5467 48.2406 10.9801C48.5959 11.4047 48.7736 12.0374 48.7736 12.8781V16.8041H47.7076V13.0211C47.7076 12.4231 47.5949 11.9811 47.3696 11.6951C47.1443 11.4004 46.7716 11.2531 46.2516 11.2531C46.0609 11.2531 45.8833 11.2791 45.7186 11.3311C45.5626 11.3744 45.4066 11.4437 45.2506 11.5391C45.0946 11.6344 44.9343 11.7557 44.7696 11.9031C44.6049 12.0417 44.4316 12.2064 44.2496 12.3971V16.8041H43.1836V10.4861ZM59.0205 15.2701C59.3758 15.5301 59.7571 15.7381 60.1645 15.8941C60.5718 16.0501 61.0615 16.1281 61.6335 16.1281C62.2055 16.1281 62.6301 16.0327 62.9075 15.8421C63.1848 15.6514 63.3235 15.4174 63.3235 15.1401C63.3235 14.8974 63.1718 14.6807 62.8685 14.4901C62.5738 14.2994 62.0408 14.1087 61.2695 13.9181C60.9401 13.8401 60.6281 13.7447 60.3335 13.6321C60.0475 13.5194 59.7961 13.3894 59.5795 13.2421C59.3628 13.0861 59.1895 12.9171 59.0595 12.7351C58.9295 12.5531 58.8645 12.3494 58.8645 12.1241C58.8645 11.8727 58.9208 11.6387 59.0335 11.4221C59.1461 11.1967 59.3108 11.0061 59.5275 10.8501C59.7528 10.6854 60.0301 10.5597 60.3595 10.4731C60.6975 10.3777 61.0831 10.3301 61.5165 10.3301C61.9931 10.3301 62.4568 10.4124 62.9075 10.5771C63.3581 10.7331 63.7395 10.9194 64.0515 11.1361L63.5315 11.8251C63.2541 11.6257 62.9465 11.4654 62.6085 11.3441C62.2705 11.2227 61.9065 11.1621 61.5165 11.1621C61.2218 11.1621 60.9748 11.1881 60.7755 11.2401C60.5761 11.2834 60.4158 11.3484 60.2945 11.4351C60.1731 11.5131 60.0865 11.6084 60.0345 11.7211C59.9825 11.8337 59.9565 11.9507 59.9565 12.0721C59.9565 12.3321 60.1341 12.5487 60.4895 12.7221C60.8448 12.8867 61.3085 13.0427 61.8805 13.1901C62.7385 13.4067 63.3711 13.6537 63.7785 13.9311C64.1945 14.2084 64.4025 14.5897 64.4025 15.0751C64.4025 15.3351 64.3418 15.5777 64.2205 15.8031C64.0991 16.0284 63.9171 16.2277 63.6745 16.4011C63.4405 16.5744 63.1458 16.7087 62.7905 16.8041C62.4438 16.9081 62.0451 16.9601 61.5945 16.9601C60.9705 16.9601 60.3941 16.8647 59.8655 16.6741C59.3455 16.4747 58.8905 16.2407 58.5005 15.9721L59.0205 15.2701ZM68.0374 11.3571H66.2564V10.5511L68.0764 10.4861L68.2194 8.71808H69.1034V10.4861H72.2104V11.3571H69.1034V14.3601C69.1034 14.6461 69.1294 14.8974 69.1814 15.1141C69.2334 15.3221 69.32 15.4997 69.4414 15.6471C69.5627 15.7944 69.7274 15.9071 69.9354 15.9851C70.1434 16.0544 70.399 16.0891 70.7024 16.0891C71.0057 16.0891 71.2787 16.0631 71.5214 16.0111C71.764 15.9591 71.998 15.8897 72.2234 15.8031L72.4574 16.5831C72.1714 16.6871 71.855 16.7737 71.5084 16.8431C71.1617 16.9211 70.815 16.9601 70.4684 16.9601C70.009 16.9601 69.6234 16.8994 69.3114 16.7781C68.9994 16.6481 68.748 16.4704 68.5574 16.2451C68.3754 16.0111 68.241 15.7337 68.1544 15.4131C68.0764 15.0924 68.0374 14.7371 68.0374 14.3471V11.3571ZM79.7193 16.8041H78.8483L78.7573 15.6991H78.7053C78.3846 16.0717 78.0336 16.3751 77.6523 16.6091C77.2796 16.8431 76.8463 16.9601 76.3523 16.9601C75.5896 16.9601 75.0306 16.7477 74.6753 16.3231C74.3286 15.8897 74.1553 15.2527 74.1553 14.4121V10.4861H75.2343V14.2691C75.2343 14.8671 75.3426 15.3134 75.5593 15.6081C75.7846 15.8941 76.1616 16.0371 76.6903 16.0371C77.0543 16.0371 77.3836 15.9461 77.6783 15.7641C77.973 15.5734 78.298 15.2744 78.6533 14.8671V10.4861H79.7193V16.8041ZM81.7292 13.6581C81.7292 13.1467 81.8072 12.6874 81.9632 12.2801C82.1279 11.8641 82.3402 11.5131 82.6002 11.2271C82.8689 10.9411 83.1766 10.7201 83.5232 10.5641C83.8699 10.4081 84.2296 10.3301 84.6022 10.3301C84.9922 10.3301 85.3346 10.4037 85.6292 10.5511C85.9239 10.6984 86.2186 10.8977 86.5132 11.1491L86.4742 9.97908V7.54808H87.5402V16.8041H86.6562L86.5652 15.9721H86.5262C86.2662 16.2407 85.9542 16.4747 85.5902 16.6741C85.2349 16.8647 84.8622 16.9601 84.4722 16.9601C84.0562 16.9601 83.6792 16.8864 83.3412 16.7391C83.0119 16.5917 82.7259 16.3794 82.4832 16.1021C82.2406 15.8161 82.0542 15.4694 81.9242 15.0621C81.7942 14.6547 81.7292 14.1867 81.7292 13.6581ZM82.8342 13.6451C82.8342 14.4077 82.9946 15.0014 83.3152 15.4261C83.6446 15.8507 84.1039 16.0631 84.6932 16.0631C85.3172 16.0631 85.9109 15.7467 86.4742 15.1141V11.9681C86.1882 11.6994 85.9066 11.5087 85.6292 11.3961C85.3606 11.2834 85.0876 11.2271 84.8102 11.2271C84.5329 11.2271 84.2729 11.2877 84.0302 11.4091C83.7962 11.5217 83.5882 11.6864 83.4062 11.9031C83.2329 12.1111 83.0942 12.3624 82.9902 12.6571C82.8862 12.9517 82.8342 13.2811 82.8342 13.6451ZM89.9141 10.4861H93.9181V16.8041H92.8521V11.3571H89.9141V10.4861ZM93.2681 9.18608C93.0168 9.18608 92.8088 9.11241 92.6441 8.96508C92.4881 8.81774 92.4101 8.61841 92.4101 8.36708C92.4101 8.11574 92.4881 7.91641 92.6441 7.76908C92.8088 7.61308 93.0168 7.53508 93.2681 7.53508C93.5108 7.53508 93.7145 7.61308 93.8791 7.76908C94.0438 7.91641 94.1261 8.11574 94.1261 8.36708C94.1261 8.61841 94.0438 8.81774 93.8791 8.96508C93.7145 9.11241 93.5108 9.18608 93.2681 9.18608ZM97.3191 13.6581C97.3191 13.1294 97.4014 12.6614 97.5661 12.2541C97.7394 11.8381 97.9691 11.4871 98.2551 11.2011C98.5411 10.9151 98.8704 10.6984 99.2431 10.5511C99.6244 10.4037 100.023 10.3301 100.439 10.3301C100.855 10.3301 101.249 10.4037 101.622 10.5511C102.003 10.6984 102.337 10.9151 102.623 11.2011C102.909 11.4871 103.134 11.8381 103.299 12.2541C103.472 12.6614 103.559 13.1294 103.559 13.6581C103.559 14.1781 103.472 14.6461 103.299 15.0621C103.134 15.4694 102.909 15.8161 102.623 16.1021C102.337 16.3794 102.003 16.5917 101.622 16.7391C101.249 16.8864 100.855 16.9601 100.439 16.9601C100.023 16.9601 99.6244 16.8864 99.2431 16.7391C98.8704 16.5917 98.5411 16.3794 98.2551 16.1021C97.9691 15.8161 97.7394 15.4694 97.5661 15.0621C97.4014 14.6461 97.3191 14.1781 97.3191 13.6581ZM98.4241 13.6581C98.4241 14.0221 98.4717 14.3514 98.5671 14.6461C98.6624 14.9407 98.7967 15.1964 98.9701 15.4131C99.1521 15.6211 99.3644 15.7857 99.6071 15.9071C99.8584 16.0197 100.136 16.0761 100.439 16.0761C100.742 16.0761 101.015 16.0197 101.258 15.9071C101.509 15.7857 101.722 15.6211 101.895 15.4131C102.077 15.1964 102.216 14.9407 102.311 14.6461C102.406 14.3514 102.454 14.0221 102.454 13.6581C102.454 13.2941 102.406 12.9647 102.311 12.6701C102.216 12.3667 102.077 12.1067 101.895 11.8901C101.722 11.6734 101.509 11.5087 101.258 11.3961C101.015 11.2747 100.742 11.2141 100.439 11.2141C100.136 11.2141 99.8584 11.2747 99.6071 11.3961C99.3644 11.5087 99.1521 11.6734 98.9701 11.8901C98.7967 12.1067 98.6624 12.3667 98.5671 12.6701C98.4717 12.9647 98.4241 13.2941 98.4241 13.6581Z" fill="#303031"/>
<path d="M20.295 51.882H9.635C9.11567 51.882 8.67833 51.7863 8.323 51.595C7.995 51.4036 7.73533 51.0483 7.544 50.529L3.526 40.484C3.28 39.8826 3.075 39.3633 2.911 38.926C2.747 38.4613 2.61033 38.024 2.501 37.614C2.39167 37.204 2.30967 36.7803 2.255 36.343C2.22767 35.8783 2.214 35.318 2.214 34.662V23.838C2.214 23.3186 2.32333 22.9496 2.542 22.731C2.788 22.485 3.17067 22.362 3.69 22.362H10.209C10.7283 22.362 11.1247 22.485 11.398 22.731C11.6713 22.9496 11.808 23.3186 11.808 23.838V35.154C11.808 35.4273 11.8353 35.7006 11.89 35.974C11.9447 36.2473 12.0267 36.5343 12.136 36.835L14.063 42.575C14.145 42.8483 14.2407 43.0396 14.35 43.149C14.4593 43.231 14.6233 43.272 14.842 43.272H15.293C15.5117 43.272 15.6757 43.231 15.785 43.149C15.8943 43.0396 15.99 42.8483 16.072 42.575L17.999 36.794C18.1083 36.4933 18.1903 36.2063 18.245 35.933C18.2997 35.6596 18.327 35.3863 18.327 35.113V23.838C18.327 23.3186 18.4363 22.9496 18.655 22.731C18.901 22.485 19.2837 22.362 19.803 22.362H26.24C26.7593 22.362 27.1283 22.485 27.347 22.731C27.593 22.9496 27.716 23.3186 27.716 23.838V34.662C27.716 35.318 27.6887 35.8783 27.634 36.343C27.6067 36.7803 27.5383 37.204 27.429 37.614C27.3197 38.024 27.183 38.4613 27.019 38.926C26.855 39.3633 26.65 39.8826 26.404 40.484L22.386 50.529C22.1947 51.0483 21.9213 51.4036 21.566 51.595C21.238 51.7863 20.8143 51.882 20.295 51.882ZM61.7882 44.133C61.7882 45.3903 61.5969 46.5383 61.2142 47.577C60.8589 48.5883 60.2029 49.463 59.2462 50.201C58.3169 50.9116 57.0186 51.472 55.3512 51.882C53.7112 52.292 51.6202 52.497 49.0782 52.497C46.5362 52.497 44.4316 52.292 42.7642 51.882C41.0969 51.472 39.7849 50.9116 38.8282 50.201C37.8989 49.463 37.2429 48.5883 36.8602 47.577C36.5049 46.5383 36.3272 45.3903 36.3272 44.133V30.152C36.3272 28.8946 36.5049 27.7603 36.8602 26.749C37.2429 25.7103 37.8989 24.822 38.8282 24.084C39.7849 23.346 41.0969 22.772 42.7642 22.362C44.4316 21.952 46.5362 21.747 49.0782 21.747C51.6202 21.747 53.7112 21.952 55.3512 22.362C57.0186 22.772 58.3169 23.346 59.2462 24.084C60.2029 24.822 60.8589 25.7103 61.2142 26.749C61.5969 27.7603 61.7882 28.8946 61.7882 30.152V44.133ZM45.6342 42.657C45.6342 43.2036 45.8392 43.6683 46.2492 44.051C46.6592 44.4063 47.6022 44.584 49.0782 44.584C50.5542 44.584 51.4972 44.4063 51.9072 44.051C52.3172 43.6683 52.5222 43.2036 52.5222 42.657V31.628C52.5222 31.1086 52.3172 30.6713 51.9072 30.316C51.4972 29.9333 50.5542 29.742 49.0782 29.742C47.6022 29.742 46.6592 29.9333 46.2492 30.316C45.8392 30.6713 45.6342 31.1086 45.6342 31.628V42.657ZM84.7017 51.882H71.7457C71.2264 51.882 70.8437 51.7726 70.5977 51.554C70.379 51.308 70.2697 50.9253 70.2697 50.406V45.609C70.2697 45.0896 70.379 44.7206 70.5977 44.502C70.8437 44.256 71.2264 44.133 71.7457 44.133H82.7747C83.13 44.133 83.3897 44.0236 83.5537 43.805C83.745 43.559 83.8407 43.272 83.8407 42.944C83.8407 42.4793 83.745 42.1376 83.5537 41.919C83.3897 41.7003 83.13 41.5773 82.7747 41.55L76.6247 40.689C74.7114 40.4156 73.167 39.787 71.9917 38.803C70.8437 37.819 70.2697 36.179 70.2697 33.883V29.578C70.2697 27.2546 71.0214 25.478 72.5247 24.248C74.028 22.9906 76.1054 22.362 78.7567 22.362H90.2367C90.756 22.362 91.125 22.485 91.3437 22.731C91.5897 22.9496 91.7127 23.3186 91.7127 23.838V28.717C91.7127 29.2363 91.5897 29.619 91.3437 29.865C91.125 30.0836 90.756 30.193 90.2367 30.193H80.6837C80.3284 30.193 80.055 30.316 79.8637 30.562C79.6724 30.7806 79.5767 31.0676 79.5767 31.423C79.5767 31.7783 79.6724 32.079 79.8637 32.325C80.055 32.571 80.3284 32.7076 80.6837 32.735L86.7927 33.555C88.706 33.8283 90.2504 34.457 91.4257 35.441C92.601 36.425 93.1887 38.065 93.1887 40.361V44.666C93.1887 46.9893 92.4234 48.7796 90.8927 50.037C89.3894 51.267 87.3257 51.882 84.7017 51.882ZM100.553 49.432C100.553 49.684 100.599 49.9173 100.693 50.132C100.786 50.3373 100.912 50.5146 101.071 50.664C101.229 50.8133 101.416 50.93 101.631 51.014C101.845 51.0886 102.074 51.126 102.317 51.126C102.606 51.126 102.886 51.0606 103.157 50.93C103.427 50.7993 103.684 50.622 103.927 50.398C103.479 50.006 103.054 49.5766 102.653 49.11C102.261 48.6433 101.906 48.158 101.589 47.654C101.29 47.9153 101.043 48.1906 100.847 48.48C100.651 48.76 100.553 49.0773 100.553 49.432ZM101.533 44.686C101.533 44.938 101.57 45.1993 101.645 45.47C101.719 45.7406 101.822 46.016 101.953 46.296C102.149 46.156 102.331 46.016 102.499 45.876C102.676 45.7266 102.83 45.5773 102.961 45.428C103.101 45.2693 103.208 45.106 103.283 44.938C103.357 44.7606 103.395 44.5693 103.395 44.364C103.395 44.0933 103.329 43.86 103.199 43.664C103.077 43.4586 102.863 43.356 102.555 43.356C102.228 43.356 101.976 43.482 101.799 43.734C101.621 43.986 101.533 44.3033 101.533 44.686ZM106.601 52.05C105.994 51.8633 105.355 51.5133 104.683 51C104.347 51.3266 103.973 51.5833 103.563 51.77C103.161 51.9566 102.699 52.05 102.177 52.05C101.766 52.05 101.393 51.9893 101.057 51.868C100.721 51.7373 100.431 51.56 100.189 51.336C99.9554 51.112 99.7687 50.846 99.6287 50.538C99.4981 50.2206 99.4327 49.8753 99.4327 49.502C99.4327 49.2033 99.4794 48.928 99.5727 48.676C99.6661 48.424 99.7921 48.1953 99.9507 47.99C100.119 47.7753 100.305 47.5793 100.511 47.402C100.716 47.2153 100.931 47.038 101.155 46.87C100.959 46.4873 100.805 46.114 100.693 45.75C100.59 45.3766 100.539 45.0266 100.539 44.7C100.539 44.392 100.585 44.1073 100.679 43.846C100.781 43.5846 100.917 43.356 101.085 43.16C101.262 42.964 101.472 42.81 101.715 42.698C101.967 42.586 102.247 42.53 102.555 42.53C103.124 42.53 103.563 42.698 103.871 43.034C104.179 43.37 104.333 43.8086 104.333 44.35C104.333 44.6486 104.272 44.9193 104.151 45.162C104.039 45.4046 103.889 45.638 103.703 45.862C103.516 46.0766 103.306 46.282 103.073 46.478C102.839 46.6646 102.601 46.8513 102.359 47.038C102.657 47.514 102.998 47.9713 103.381 48.41C103.773 48.8486 104.179 49.25 104.599 49.614C104.86 49.2406 105.084 48.8346 105.271 48.396C105.467 47.948 105.63 47.458 105.761 46.926H106.825C106.657 47.5326 106.451 48.1113 106.209 48.662C105.966 49.2126 105.677 49.7306 105.341 50.216C105.901 50.6453 106.428 50.9393 106.923 51.098L106.601 52.05ZM123.879 51.882H113.959C113.149 51.882 112.551 51.7113 112.167 51.37C111.826 50.986 111.655 50.3886 111.655 49.578V8.10596C111.655 7.29529 111.826 6.71929 112.167 6.37796C112.551 5.99396 113.149 5.80196 113.959 5.80196H123.879C124.69 5.80196 125.266 5.99396 125.607 6.37796C125.991 6.71929 126.183 7.29529 126.183 8.10596V22.826H128.743L135.335 7.91396C135.634 7.14596 136.039 6.61262 136.551 6.31396C137.063 5.97262 137.725 5.80196 138.535 5.80196H148.391C149.117 5.80196 149.607 5.99396 149.863 6.37796C150.119 6.71929 150.098 7.23129 149.799 7.91396L143.271 22.826C145.661 22.954 147.559 23.8073 148.967 25.386C150.418 26.922 151.143 28.97 151.143 31.53V49.578C151.143 50.3886 150.951 50.986 150.567 51.37C150.226 51.7113 149.65 51.882 148.839 51.882H138.983C138.173 51.882 137.575 51.7113 137.191 51.37C136.85 50.986 136.679 50.3886 136.679 49.578V37.098C136.679 36.4153 136.509 35.882 136.167 35.498C135.826 35.114 135.314 34.922 134.631 34.922H126.183V49.578C126.183 50.3886 125.991 50.986 125.607 51.37C125.266 51.7113 124.69 51.882 123.879 51.882Z" fill="#303031"/>
</svg>
