<svg width="161" height="60" viewBox="0 0 161 60" fill="none" xmlns="http://www.w3.org/2000/svg">
<path d="M3.78 13.854C3.78 13.3427 3.858 12.8833 4.014 12.476C4.17867 12.06 4.391 11.709 4.651 11.423C4.91967 11.137 5.22733 10.916 5.574 10.76C5.92067 10.604 6.28033 10.526 6.653 10.526C7.043 10.526 7.38533 10.5997 7.68 10.747C7.97467 10.8943 8.26933 11.0937 8.564 11.345L8.525 10.175V7.744H9.591V17H8.707L8.616 16.168H8.577C8.317 16.4367 8.005 16.6707 7.641 16.87C7.28567 17.0607 6.913 17.156 6.523 17.156C6.107 17.156 5.73 17.0823 5.392 16.935C5.06267 16.7877 4.77667 16.5753 4.534 16.298C4.29133 16.012 4.105 15.6653 3.975 15.258C3.845 14.8507 3.78 14.3827 3.78 13.854ZM4.885 13.841C4.885 14.6037 5.04533 15.1973 5.366 15.622C5.69533 16.0467 6.15467 16.259 6.744 16.259C7.368 16.259 7.96167 15.9427 8.525 15.31V12.164C8.239 11.8953 7.95733 11.7047 7.68 11.592C7.41133 11.4793 7.13833 11.423 6.861 11.423C6.58367 11.423 6.32367 11.4837 6.081 11.605C5.847 11.7177 5.639 11.8823 5.457 12.099C5.28367 12.307 5.145 12.5583 5.041 12.853C4.937 13.1477 4.885 13.477 4.885 13.841ZM11.6919 13.854C11.6919 13.334 11.7829 12.8703 11.9649 12.463C12.1469 12.047 12.3853 11.696 12.6799 11.41C12.9833 11.124 13.3256 10.9073 13.7069 10.76C14.0969 10.604 14.4956 10.526 14.9029 10.526C15.3536 10.526 15.7566 10.5997 16.1119 10.747C16.4673 10.8857 16.7663 11.085 17.0089 11.345C17.2603 11.605 17.4509 11.917 17.5809 12.281C17.7109 12.645 17.7759 13.048 17.7759 13.49C17.7759 13.6027 17.7716 13.7153 17.7629 13.828C17.7629 13.932 17.7543 14.023 17.7369 14.101H12.7969C12.8056 14.439 12.8706 14.7423 12.9919 15.011C13.1219 15.2797 13.2909 15.5093 13.4989 15.7C13.7156 15.8907 13.9669 16.038 14.2529 16.142C14.5476 16.246 14.8683 16.298 15.2149 16.298C15.5876 16.298 15.9256 16.246 16.2289 16.142C16.5409 16.038 16.8443 15.895 17.1389 15.713L17.5159 16.415C17.2039 16.6143 16.8486 16.7877 16.4499 16.935C16.0513 17.0823 15.5963 17.156 15.0849 17.156C14.6169 17.156 14.1749 17.0823 13.7589 16.935C13.3516 16.779 12.9919 16.5623 12.6799 16.285C12.3766 15.999 12.1339 15.6523 11.9519 15.245C11.7786 14.8377 11.6919 14.374 11.6919 13.854ZM16.7879 13.334C16.7879 12.7013 16.6233 12.216 16.2939 11.878C15.9646 11.54 15.5053 11.371 14.9159 11.371C14.6559 11.371 14.4046 11.4143 14.1619 11.501C13.9279 11.5877 13.7156 11.7177 13.5249 11.891C13.3343 12.0557 13.1739 12.2593 13.0439 12.502C12.9139 12.7447 12.8273 13.022 12.7839 13.334H16.7879ZM20.0458 15.466C20.4012 15.726 20.7825 15.934 21.1898 16.09C21.5972 16.246 22.0868 16.324 22.6588 16.324C23.2308 16.324 23.6555 16.2287 23.9328 16.038C24.2102 15.8473 24.3488 15.6133 24.3488 15.336C24.3488 15.0933 24.1972 14.8767 23.8938 14.686C23.5992 14.4953 23.0662 14.3047 22.2948 14.114C21.9655 14.036 21.6535 13.9407 21.3588 13.828C21.0728 13.7153 20.8215 13.5853 20.6048 13.438C20.3882 13.282 20.2148 13.113 20.0848 12.931C19.9548 12.749 19.8898 12.5453 19.8898 12.32C19.8898 12.0687 19.9462 11.8347 20.0588 11.618C20.1715 11.3927 20.3362 11.202 20.5528 11.046C20.7782 10.8813 21.0555 10.7557 21.3848 10.669C21.7228 10.5737 22.1085 10.526 22.5418 10.526C23.0185 10.526 23.4822 10.6083 23.9328 10.773C24.3835 10.929 24.7648 11.1153 25.0768 11.332L24.5568 12.021C24.2795 11.8217 23.9718 11.6613 23.6338 11.54C23.2958 11.4187 22.9318 11.358 22.5418 11.358C22.2472 11.358 22.0002 11.384 21.8008 11.436C21.6015 11.4793 21.4412 11.5443 21.3198 11.631C21.1985 11.709 21.1118 11.8043 21.0598 11.917C21.0078 12.0297 20.9818 12.1467 20.9818 12.268C20.9818 12.528 21.1595 12.7447 21.5148 12.918C21.8702 13.0827 22.3338 13.2387 22.9058 13.386C23.7638 13.6027 24.3965 13.8497 24.8038 14.127C25.2198 14.4043 25.4278 14.7857 25.4278 15.271C25.4278 15.531 25.3672 15.7737 25.2458 15.999C25.1245 16.2243 24.9425 16.4237 24.6998 16.597C24.4658 16.7703 24.1712 16.9047 23.8158 17C23.4692 17.104 23.0705 17.156 22.6198 17.156C21.9958 17.156 21.4195 17.0607 20.8908 16.87C20.3708 16.6707 19.9158 16.4367 19.5258 16.168L20.0458 15.466ZM27.5548 10.682H31.5588V17H30.4928V11.553H27.5548V10.682ZM30.9088 9.382C30.6574 9.382 30.4494 9.30833 30.2848 9.161C30.1288 9.01367 30.0508 8.81433 30.0508 8.563C30.0508 8.31167 30.1288 8.11233 30.2848 7.965C30.4494 7.809 30.6574 7.731 30.9088 7.731C31.1514 7.731 31.3551 7.809 31.5198 7.965C31.6844 8.11233 31.7668 8.31167 31.7668 8.563C31.7668 8.81433 31.6844 9.01367 31.5198 9.161C31.3551 9.30833 31.1514 9.382 30.9088 9.382ZM36.0387 18.053C36.0387 18.3823 36.212 18.651 36.5587 18.859C36.914 19.067 37.4297 19.171 38.1057 19.171C38.4697 19.171 38.799 19.132 39.0937 19.054C39.3884 18.9847 39.6397 18.8893 39.8477 18.768C40.0557 18.6467 40.2117 18.508 40.3157 18.352C40.4284 18.196 40.4847 18.0357 40.4847 17.871C40.4847 17.5677 40.3634 17.364 40.1207 17.26C39.8867 17.156 39.527 17.104 39.0417 17.104H37.8067C37.6247 17.104 37.4514 17.0953 37.2867 17.078C37.1307 17.0693 36.9834 17.0433 36.8447 17C36.5414 17.1647 36.329 17.3337 36.2077 17.507C36.095 17.689 36.0387 17.871 36.0387 18.053ZM35.1157 18.157C35.1157 17.9057 35.2024 17.6587 35.3757 17.416C35.5577 17.1733 35.8177 16.9523 36.1557 16.753V16.701C35.9824 16.6057 35.8307 16.4757 35.7007 16.311C35.5707 16.1463 35.5057 15.9297 35.5057 15.661C35.5057 15.4617 35.5707 15.258 35.7007 15.05C35.8307 14.8333 36.017 14.6427 36.2597 14.478V14.426C36.043 14.2613 35.8567 14.0447 35.7007 13.776C35.5534 13.4987 35.4797 13.1693 35.4797 12.788C35.4797 12.4413 35.5447 12.1293 35.6747 11.852C35.8134 11.5747 35.9954 11.3407 36.2207 11.15C36.446 10.9507 36.706 10.799 37.0007 10.695C37.304 10.5823 37.6247 10.526 37.9627 10.526C38.3094 10.526 38.6214 10.578 38.8987 10.682H41.5117V11.501H39.8217C39.969 11.657 40.1034 11.8477 40.2247 12.073C40.346 12.2983 40.4067 12.5497 40.4067 12.827C40.4067 13.165 40.3417 13.4683 40.2117 13.737C40.0904 14.0057 39.917 14.2353 39.6917 14.426C39.475 14.608 39.215 14.751 38.9117 14.855C38.617 14.9503 38.3007 14.998 37.9627 14.998C37.798 14.998 37.6204 14.9807 37.4297 14.946C37.2477 14.9027 37.07 14.842 36.8967 14.764C36.5674 14.972 36.4027 15.2147 36.4027 15.492C36.4027 15.7433 36.5154 15.9297 36.7407 16.051C36.9747 16.1637 37.2997 16.22 37.7157 16.22H39.1327C39.9474 16.22 40.5497 16.3327 40.9397 16.558C41.3384 16.7833 41.5377 17.1647 41.5377 17.702C41.5377 17.9967 41.4554 18.2783 41.2907 18.547C41.126 18.8157 40.892 19.0497 40.5887 19.249C40.2854 19.4483 39.917 19.6087 39.4837 19.73C39.0504 19.8513 38.565 19.912 38.0277 19.912C37.1004 19.912 36.381 19.7603 35.8697 19.457C35.367 19.1537 35.1157 18.7203 35.1157 18.157ZM37.9627 14.283C38.37 14.283 38.7124 14.1487 38.9897 13.88C39.2757 13.6113 39.4187 13.2473 39.4187 12.788C39.4187 12.5713 39.3797 12.372 39.3017 12.19C39.2237 12.008 39.1197 11.852 38.9897 11.722C38.8597 11.592 38.7037 11.4923 38.5217 11.423C38.3484 11.345 38.162 11.306 37.9627 11.306C37.7634 11.306 37.5727 11.345 37.3907 11.423C37.2174 11.4923 37.0657 11.592 36.9357 11.722C36.8057 11.852 36.7017 12.008 36.6237 12.19C36.5457 12.372 36.5067 12.5713 36.5067 12.788C36.5067 13.2473 36.6497 13.6113 36.9357 13.88C37.2217 14.1487 37.564 14.283 37.9627 14.283ZM43.1836 10.682H44.0676L44.1586 11.761H44.2106C44.5399 11.4057 44.8953 11.111 45.2766 10.877C45.6579 10.643 46.0956 10.526 46.5896 10.526C47.3436 10.526 47.8939 10.7427 48.2406 11.176C48.5959 11.6007 48.7736 12.2333 48.7736 13.074V17H47.7076V13.217C47.7076 12.619 47.5949 12.177 47.3696 11.891C47.1443 11.5963 46.7716 11.449 46.2516 11.449C46.0609 11.449 45.8833 11.475 45.7186 11.527C45.5626 11.5703 45.4066 11.6397 45.2506 11.735C45.0946 11.8303 44.9343 11.9517 44.7696 12.099C44.6049 12.2377 44.4316 12.4023 44.2496 12.593V17H43.1836V10.682ZM59.0205 15.466C59.3758 15.726 59.7571 15.934 60.1645 16.09C60.5718 16.246 61.0615 16.324 61.6335 16.324C62.2055 16.324 62.6301 16.2287 62.9075 16.038C63.1848 15.8473 63.3235 15.6133 63.3235 15.336C63.3235 15.0933 63.1718 14.8767 62.8685 14.686C62.5738 14.4953 62.0408 14.3047 61.2695 14.114C60.9401 14.036 60.6281 13.9407 60.3335 13.828C60.0475 13.7153 59.7961 13.5853 59.5795 13.438C59.3628 13.282 59.1895 13.113 59.0595 12.931C58.9295 12.749 58.8645 12.5453 58.8645 12.32C58.8645 12.0687 58.9208 11.8347 59.0335 11.618C59.1461 11.3927 59.3108 11.202 59.5275 11.046C59.7528 10.8813 60.0301 10.7557 60.3595 10.669C60.6975 10.5737 61.0831 10.526 61.5165 10.526C61.9931 10.526 62.4568 10.6083 62.9075 10.773C63.3581 10.929 63.7395 11.1153 64.0515 11.332L63.5315 12.021C63.2541 11.8217 62.9465 11.6613 62.6085 11.54C62.2705 11.4187 61.9065 11.358 61.5165 11.358C61.2218 11.358 60.9748 11.384 60.7755 11.436C60.5761 11.4793 60.4158 11.5443 60.2945 11.631C60.1731 11.709 60.0865 11.8043 60.0345 11.917C59.9825 12.0297 59.9565 12.1467 59.9565 12.268C59.9565 12.528 60.1341 12.7447 60.4895 12.918C60.8448 13.0827 61.3085 13.2387 61.8805 13.386C62.7385 13.6027 63.3711 13.8497 63.7785 14.127C64.1945 14.4043 64.4025 14.7857 64.4025 15.271C64.4025 15.531 64.3418 15.7737 64.2205 15.999C64.0991 16.2243 63.9171 16.4237 63.6745 16.597C63.4405 16.7703 63.1458 16.9047 62.7905 17C62.4438 17.104 62.0451 17.156 61.5945 17.156C60.9705 17.156 60.3941 17.0607 59.8655 16.87C59.3455 16.6707 58.8905 16.4367 58.5005 16.168L59.0205 15.466ZM68.0374 11.553H66.2564V10.747L68.0764 10.682L68.2194 8.914H69.1034V10.682H72.2104V11.553H69.1034V14.556C69.1034 14.842 69.1294 15.0933 69.1814 15.31C69.2334 15.518 69.32 15.6957 69.4414 15.843C69.5627 15.9903 69.7274 16.103 69.9354 16.181C70.1434 16.2503 70.399 16.285 70.7024 16.285C71.0057 16.285 71.2787 16.259 71.5214 16.207C71.764 16.155 71.998 16.0857 72.2234 15.999L72.4574 16.779C72.1714 16.883 71.855 16.9697 71.5084 17.039C71.1617 17.117 70.815 17.156 70.4684 17.156C70.009 17.156 69.6234 17.0953 69.3114 16.974C68.9994 16.844 68.748 16.6663 68.5574 16.441C68.3754 16.207 68.241 15.9297 68.1544 15.609C68.0764 15.2883 68.0374 14.933 68.0374 14.543V11.553ZM79.7193 17H78.8483L78.7573 15.895H78.7053C78.3846 16.2677 78.0336 16.571 77.6523 16.805C77.2796 17.039 76.8463 17.156 76.3523 17.156C75.5896 17.156 75.0306 16.9437 74.6753 16.519C74.3286 16.0857 74.1553 15.4487 74.1553 14.608V10.682H75.2343V14.465C75.2343 15.063 75.3426 15.5093 75.5593 15.804C75.7846 16.09 76.1616 16.233 76.6903 16.233C77.0543 16.233 77.3836 16.142 77.6783 15.96C77.973 15.7693 78.298 15.4703 78.6533 15.063V10.682H79.7193V17ZM81.7292 13.854C81.7292 13.3427 81.8072 12.8833 81.9632 12.476C82.1279 12.06 82.3402 11.709 82.6002 11.423C82.8689 11.137 83.1766 10.916 83.5232 10.76C83.8699 10.604 84.2296 10.526 84.6022 10.526C84.9922 10.526 85.3346 10.5997 85.6292 10.747C85.9239 10.8943 86.2186 11.0937 86.5132 11.345L86.4742 10.175V7.744H87.5402V17H86.6562L86.5652 16.168H86.5262C86.2662 16.4367 85.9542 16.6707 85.5902 16.87C85.2349 17.0607 84.8622 17.156 84.4722 17.156C84.0562 17.156 83.6792 17.0823 83.3412 16.935C83.0119 16.7877 82.7259 16.5753 82.4832 16.298C82.2406 16.012 82.0542 15.6653 81.9242 15.258C81.7942 14.8507 81.7292 14.3827 81.7292 13.854ZM82.8342 13.841C82.8342 14.6037 82.9946 15.1973 83.3152 15.622C83.6446 16.0467 84.1039 16.259 84.6932 16.259C85.3172 16.259 85.9109 15.9427 86.4742 15.31V12.164C86.1882 11.8953 85.9066 11.7047 85.6292 11.592C85.3606 11.4793 85.0876 11.423 84.8102 11.423C84.5329 11.423 84.2729 11.4837 84.0302 11.605C83.7962 11.7177 83.5882 11.8823 83.4062 12.099C83.2329 12.307 83.0942 12.5583 82.9902 12.853C82.8862 13.1477 82.8342 13.477 82.8342 13.841ZM89.9141 10.682H93.9181V17H92.8521V11.553H89.9141V10.682ZM93.2681 9.382C93.0168 9.382 92.8088 9.30833 92.6441 9.161C92.4881 9.01367 92.4101 8.81433 92.4101 8.563C92.4101 8.31167 92.4881 8.11233 92.6441 7.965C92.8088 7.809 93.0168 7.731 93.2681 7.731C93.5108 7.731 93.7145 7.809 93.8791 7.965C94.0438 8.11233 94.1261 8.31167 94.1261 8.563C94.1261 8.81433 94.0438 9.01367 93.8791 9.161C93.7145 9.30833 93.5108 9.382 93.2681 9.382ZM97.3191 13.854C97.3191 13.3253 97.4014 12.8573 97.5661 12.45C97.7394 12.034 97.9691 11.683 98.2551 11.397C98.5411 11.111 98.8704 10.8943 99.2431 10.747C99.6244 10.5997 100.023 10.526 100.439 10.526C100.855 10.526 101.249 10.5997 101.622 10.747C102.003 10.8943 102.337 11.111 102.623 11.397C102.909 11.683 103.134 12.034 103.299 12.45C103.472 12.8573 103.559 13.3253 103.559 13.854C103.559 14.374 103.472 14.842 103.299 15.258C103.134 15.6653 102.909 16.012 102.623 16.298C102.337 16.5753 102.003 16.7877 101.622 16.935C101.249 17.0823 100.855 17.156 100.439 17.156C100.023 17.156 99.6244 17.0823 99.2431 16.935C98.8704 16.7877 98.5411 16.5753 98.2551 16.298C97.9691 16.012 97.7394 15.6653 97.5661 15.258C97.4014 14.842 97.3191 14.374 97.3191 13.854ZM98.4241 13.854C98.4241 14.218 98.4717 14.5473 98.5671 14.842C98.6624 15.1367 98.7967 15.3923 98.9701 15.609C99.1521 15.817 99.3644 15.9817 99.6071 16.103C99.8584 16.2157 100.136 16.272 100.439 16.272C100.742 16.272 101.015 16.2157 101.258 16.103C101.509 15.9817 101.722 15.817 101.895 15.609C102.077 15.3923 102.216 15.1367 102.311 14.842C102.406 14.5473 102.454 14.218 102.454 13.854C102.454 13.49 102.406 13.1607 102.311 12.866C102.216 12.5627 102.077 12.3027 101.895 12.086C101.722 11.8693 101.509 11.7047 101.258 11.592C101.015 11.4707 100.742 11.41 100.439 11.41C100.136 11.41 99.8584 11.4707 99.6071 11.592C99.3644 11.7047 99.1521 11.8693 98.9701 12.086C98.7967 12.3027 98.6624 12.5627 98.5671 12.866C98.4717 13.1607 98.4241 13.49 98.4241 13.854Z" fill="black"/>
<path d="M20.295 51H9.635C9.11567 51 8.67833 50.9043 8.323 50.713C7.995 50.5217 7.73533 50.1663 7.544 49.647L3.526 39.602C3.28 39.0007 3.075 38.4813 2.911 38.044C2.747 37.5793 2.61033 37.142 2.501 36.732C2.39167 36.322 2.30967 35.8983 2.255 35.461C2.22767 34.9963 2.214 34.436 2.214 33.78V22.956C2.214 22.4367 2.32333 22.0677 2.542 21.849C2.788 21.603 3.17067 21.48 3.69 21.48H10.209C10.7283 21.48 11.1247 21.603 11.398 21.849C11.6713 22.0677 11.808 22.4367 11.808 22.956V34.272C11.808 34.5453 11.8353 34.8187 11.89 35.092C11.9447 35.3653 12.0267 35.6523 12.136 35.953L14.063 41.693C14.145 41.9663 14.2407 42.1577 14.35 42.267C14.4593 42.349 14.6233 42.39 14.842 42.39H15.293C15.5117 42.39 15.6757 42.349 15.785 42.267C15.8943 42.1577 15.99 41.9663 16.072 41.693L17.999 35.912C18.1083 35.6113 18.1903 35.3243 18.245 35.051C18.2997 34.7777 18.327 34.5043 18.327 34.231V22.956C18.327 22.4367 18.4363 22.0677 18.655 21.849C18.901 21.603 19.2837 21.48 19.803 21.48H26.24C26.7593 21.48 27.1283 21.603 27.347 21.849C27.593 22.0677 27.716 22.4367 27.716 22.956V33.78C27.716 34.436 27.6887 34.9963 27.634 35.461C27.6067 35.8983 27.5383 36.322 27.429 36.732C27.3197 37.142 27.183 37.5793 27.019 38.044C26.855 38.4813 26.65 39.0007 26.404 39.602L22.386 49.647C22.1947 50.1663 21.9213 50.5217 21.566 50.713C21.238 50.9043 20.8143 51 20.295 51ZM61.7882 43.251C61.7882 44.5083 61.5969 45.6563 61.2142 46.695C60.8589 47.7063 60.2029 48.581 59.2462 49.319C58.3169 50.0297 57.0186 50.59 55.3512 51C53.7112 51.41 51.6202 51.615 49.0782 51.615C46.5362 51.615 44.4316 51.41 42.7642 51C41.0969 50.59 39.7849 50.0297 38.8282 49.319C37.8989 48.581 37.2429 47.7063 36.8602 46.695C36.5049 45.6563 36.3272 44.5083 36.3272 43.251V29.27C36.3272 28.0127 36.5049 26.8783 36.8602 25.867C37.2429 24.8283 37.8989 23.94 38.8282 23.202C39.7849 22.464 41.0969 21.89 42.7642 21.48C44.4316 21.07 46.5362 20.865 49.0782 20.865C51.6202 20.865 53.7112 21.07 55.3512 21.48C57.0186 21.89 58.3169 22.464 59.2462 23.202C60.2029 23.94 60.8589 24.8283 61.2142 25.867C61.5969 26.8783 61.7882 28.0127 61.7882 29.27V43.251ZM45.6342 41.775C45.6342 42.3217 45.8392 42.7863 46.2492 43.169C46.6592 43.5243 47.6022 43.702 49.0782 43.702C50.5542 43.702 51.4972 43.5243 51.9072 43.169C52.3172 42.7863 52.5222 42.3217 52.5222 41.775V30.746C52.5222 30.2267 52.3172 29.7893 51.9072 29.434C51.4972 29.0513 50.5542 28.86 49.0782 28.86C47.6022 28.86 46.6592 29.0513 46.2492 29.434C45.8392 29.7893 45.6342 30.2267 45.6342 30.746V41.775ZM84.7017 51H71.7457C71.2264 51 70.8437 50.8907 70.5977 50.672C70.379 50.426 70.2697 50.0433 70.2697 49.524V44.727C70.2697 44.2077 70.379 43.8387 70.5977 43.62C70.8437 43.374 71.2264 43.251 71.7457 43.251H82.7747C83.13 43.251 83.3897 43.1417 83.5537 42.923C83.745 42.677 83.8407 42.39 83.8407 42.062C83.8407 41.5973 83.745 41.2557 83.5537 41.037C83.3897 40.8183 83.13 40.6953 82.7747 40.668L76.6247 39.807C74.7114 39.5337 73.167 38.905 71.9917 37.921C70.8437 36.937 70.2697 35.297 70.2697 33.001V28.696C70.2697 26.3727 71.0214 24.596 72.5247 23.366C74.028 22.1087 76.1054 21.48 78.7567 21.48H90.2367C90.756 21.48 91.125 21.603 91.3437 21.849C91.5897 22.0677 91.7127 22.4367 91.7127 22.956V27.835C91.7127 28.3543 91.5897 28.737 91.3437 28.983C91.125 29.2017 90.756 29.311 90.2367 29.311H80.6837C80.3284 29.311 80.055 29.434 79.8637 29.68C79.6724 29.8987 79.5767 30.1857 79.5767 30.541C79.5767 30.8963 79.6724 31.197 79.8637 31.443C80.055 31.689 80.3284 31.8257 80.6837 31.853L86.7927 32.673C88.706 32.9463 90.2504 33.575 91.4257 34.559C92.601 35.543 93.1887 37.183 93.1887 39.479V43.784C93.1887 46.1073 92.4234 47.8977 90.8927 49.155C89.3894 50.385 87.3257 51 84.7017 51Z" fill="white" fill-opacity="0.86"/>
<path d="M100.553 48.55C100.553 48.802 100.599 49.0353 100.693 49.25C100.786 49.4553 100.912 49.6327 101.071 49.782C101.229 49.9313 101.416 50.048 101.631 50.132C101.845 50.2067 102.074 50.244 102.317 50.244C102.606 50.244 102.886 50.1787 103.157 50.048C103.427 49.9173 103.684 49.74 103.927 49.516C103.479 49.124 103.054 48.6947 102.653 48.228C102.261 47.7613 101.906 47.276 101.589 46.772C101.29 47.0333 101.043 47.3087 100.847 47.598C100.651 47.878 100.553 48.1953 100.553 48.55ZM101.533 43.804C101.533 44.056 101.57 44.3173 101.645 44.588C101.719 44.8587 101.822 45.134 101.953 45.414C102.149 45.274 102.331 45.134 102.499 44.994C102.676 44.8447 102.83 44.6953 102.961 44.546C103.101 44.3873 103.208 44.224 103.283 44.056C103.357 43.8787 103.395 43.6873 103.395 43.482C103.395 43.2113 103.329 42.978 103.199 42.782C103.077 42.5767 102.863 42.474 102.555 42.474C102.228 42.474 101.976 42.6 101.799 42.852C101.621 43.104 101.533 43.4213 101.533 43.804ZM106.601 51.168C105.994 50.9813 105.355 50.6313 104.683 50.118C104.347 50.4447 103.973 50.7013 103.563 50.888C103.161 51.0747 102.699 51.168 102.177 51.168C101.766 51.168 101.393 51.1073 101.057 50.986C100.721 50.8553 100.431 50.678 100.189 50.454C99.9554 50.23 99.7687 49.964 99.6287 49.656C99.4981 49.3387 99.4327 48.9933 99.4327 48.62C99.4327 48.3213 99.4794 48.046 99.5727 47.794C99.6661 47.542 99.7921 47.3133 99.9507 47.108C100.119 46.8933 100.305 46.6973 100.511 46.52C100.716 46.3333 100.931 46.156 101.155 45.988C100.959 45.6053 100.805 45.232 100.693 44.868C100.59 44.4947 100.539 44.1447 100.539 43.818C100.539 43.51 100.585 43.2253 100.679 42.964C100.781 42.7027 100.917 42.474 101.085 42.278C101.262 42.082 101.472 41.928 101.715 41.816C101.967 41.704 102.247 41.648 102.555 41.648C103.124 41.648 103.563 41.816 103.871 42.152C104.179 42.488 104.333 42.9267 104.333 43.468C104.333 43.7667 104.272 44.0373 104.151 44.28C104.039 44.5227 103.889 44.756 103.703 44.98C103.516 45.1947 103.306 45.4 103.073 45.596C102.839 45.7827 102.601 45.9693 102.359 46.156C102.657 46.632 102.998 47.0893 103.381 47.528C103.773 47.9667 104.179 48.368 104.599 48.732C104.86 48.3587 105.084 47.9527 105.271 47.514C105.467 47.066 105.63 46.576 105.761 46.044H106.825C106.657 46.6507 106.451 47.2293 106.209 47.78C105.966 48.3307 105.677 48.8487 105.341 49.334C105.901 49.7633 106.428 50.0573 106.923 50.216L106.601 51.168Z" fill="white" fill-opacity="0.8"/>
<path d="M123.879 51H113.959C113.149 51 112.551 50.8293 112.167 50.488C111.826 50.104 111.655 49.5067 111.655 48.696V7.224C111.655 6.41333 111.826 5.83733 112.167 5.496C112.551 5.112 113.149 4.92 113.959 4.92H123.879C124.69 4.92 125.266 5.112 125.607 5.496C125.991 5.83733 126.183 6.41333 126.183 7.224V21.944H128.743L135.335 7.032C135.634 6.264 136.039 5.73066 136.551 5.432C137.063 5.09067 137.725 4.92 138.535 4.92H148.391C149.117 4.92 149.607 5.112 149.863 5.496C150.119 5.83733 150.098 6.34933 149.799 7.032L143.271 21.944C145.661 22.072 147.559 22.9253 148.967 24.504C150.418 26.04 151.143 28.088 151.143 30.648V48.696C151.143 49.5067 150.951 50.104 150.567 50.488C150.226 50.8293 149.65 51 148.839 51H138.983C138.173 51 137.575 50.8293 137.191 50.488C136.85 50.104 136.679 49.5067 136.679 48.696V36.216C136.679 35.5333 136.509 35 136.167 34.616C135.826 34.232 135.314 34.04 134.631 34.04H126.183V48.696C126.183 49.5067 125.991 50.104 125.607 50.488C125.266 50.8293 124.69 51 123.879 51Z" fill="#A68766"/>
</svg>
