<svg width="8" height="8" viewBox="0 0 8 8" fill="none" xmlns="http://www.w3.org/2000/svg">
<path d="M4.35355 3.64645C4.15829 3.45118 3.84171 3.45118 3.64645 3.64645L0.464466 6.82843C0.269204 7.02369 0.269204 7.34027 0.464466 7.53553C0.659728 7.7308 0.976311 7.7308 1.17157 7.53553L4 4.70711L6.82843 7.53553C7.02369 7.7308 7.34027 7.7308 7.53553 7.53553C7.7308 7.34027 7.7308 7.02369 7.53553 6.82843L4.35355 3.64645ZM4.5 5V4H3.5V5H4.5Z" fill="rgba(166, 135, 102, 1)"/>
<path d="M4.35355 0.646447C4.15829 0.451184 3.84171 0.451184 3.64645 0.646447L0.464466 3.82843C0.269204 4.02369 0.269204 4.34027 0.464466 4.53553C0.659728 4.7308 0.976311 4.7308 1.17157 4.53553L4 1.70711L6.82843 4.53553C7.02369 4.7308 7.34027 4.7308 7.53553 4.53553C7.7308 4.34027 7.7308 4.02369 7.53553 3.82843L4.35355 0.646447ZM4.5 2V1H3.5V2H4.5Z" fill="rgba(166, 135, 102, 1)"/>
</svg>
